<svg width="23" height="17" viewBox="0 0 23 17" fill="none" xmlns="http://www.w3.org/2000/svg">
<path d="M21.1495 7.52352C21.4535 7.94952 21.6055 8.16352 21.6055 8.47852C21.6055 8.79452 21.4535 9.00752 21.1495 9.43352C19.7835 11.3495 16.2945 15.4785 11.6055 15.4785C6.91547 15.4785 3.42747 11.3485 2.06147 9.43352C1.75747 9.00752 1.60547 8.79352 1.60547 8.47852C1.60547 8.16252 1.75747 7.94952 2.06147 7.52352C3.42747 5.60752 6.91647 1.47852 11.6055 1.47852C16.2955 1.47852 19.7835 5.60852 21.1495 7.52352Z" stroke="#24A197" stroke-width="1.5" stroke-linecap="round" stroke-linejoin="round"/>
<path d="M14.6055 8.47852C14.6055 7.68287 14.2894 6.9198 13.7268 6.35719C13.1642 5.79459 12.4011 5.47852 11.6055 5.47852C10.8098 5.47852 10.0468 5.79459 9.48415 6.35719C8.92154 6.9198 8.60547 7.68287 8.60547 8.47852C8.60547 9.27417 8.92154 10.0372 9.48415 10.5998C10.0468 11.1624 10.8098 11.4785 11.6055 11.4785C12.4011 11.4785 13.1642 11.1624 13.7268 10.5998C14.2894 10.0372 14.6055 9.27417 14.6055 8.47852Z" stroke="#24A197" stroke-width="1.5" stroke-linecap="round" stroke-linejoin="round"/>
</svg>
