<svg width="40" height="40" viewBox="0 0 40 40" fill="none" xmlns="http://www.w3.org/2000/svg">
<path d="M0 3.88889L0 36.1111C0 37.1425 0.409721 38.1317 1.13903 38.861C1.86834 39.5903 2.85749 40 3.88889 40H36.1111C37.1425 40 38.1317 39.5903 38.861 38.861C39.5903 38.1317 40 37.1425 40 36.1111V3.88889C40 2.85749 39.5903 1.86834 38.861 1.13903C38.1317 0.409721 37.1425 0 36.1111 0H3.88889C2.85749 0 1.86834 0.409721 1.13903 1.13903C0.409721 1.86834 0 2.85749 0 3.88889ZM24.0167 8.69278H26.9828C27.2665 8.72075 27.5322 8.84457 27.7361 9.04383C27.94 9.24309 28.0699 9.50589 28.1044 9.78889L28.1056 26.5361C28.1056 27.7761 27.7056 28.8333 26.9072 29.7067C26.1083 30.5794 25.1422 31.0161 24.0067 31.0161C23.1033 31.0161 22.3006 30.7211 21.5928 30.1306C20.8872 29.5394 20.3961 28.7911 20.1172 27.8856L15.9356 13.2517L15.9356 31.0156H13.1044C12.8209 31.0113 12.5472 30.9114 12.3276 30.732C12.1081 30.5526 11.9556 30.3042 11.895 30.0272L11.895 13.1728C11.895 11.9328 12.2917 10.8767 13.0833 10.0033C13.8761 9.13 14.8222 8.69278 15.9233 8.69278C16.8428 8.69278 17.6517 8.99056 18.3517 9.58556C19.0528 10.1806 19.5411 10.9461 19.8156 11.8822L24.0167 26.5361L24.0167 8.69278Z" fill="#009254"/>
</svg>
